ModelForces
version=1
nRows=4
nColumns=151
inDegrees=no

This file contains the forces exerted on a model during a simulation.

A force is a generalized force, meaning that it can be either a force (N) or a torque (Nm).

Units are S.I. units (second, meters, Newtons, ...)
Angles are in degrees.

endheader
time	glut_med1_r	glut_med2_r	glut_med3_r	glut_min1_r	glut_min2_r	glut_min3_r	semimem_r	semiten_r	bifemlh_r	bifemsh_r	sar_r	add_long_r	add_brev_r	add_mag1_r	add_mag2_r	add_mag3_r	tfl_r	pect_r	grac_r	glut_max1_r	glut_max2_r	glut_max3_r	iliacus_r	psoas_r	quad_fem_r	gem_r	peri_r	rect_fem_r	vas_med_r	vas_int_r	vas_lat_r	med_gas_r	lat_gas_r	soleus_r	tib_post_r	flex_dig_r	flex_hal_r	tib_ant_r	per_brev_r	per_long_r	per_tert_r	ext_dig_r	ext_hal_r	glut_med1_l	glut_med2_l	glut_med3_l	glut_min1_l	glut_min2_l	glut_min3_l	semimem_l	semiten_l	bifemlh_l	bifemsh_l	sar_l	add_long_l	add_brev_l	add_mag1_l	add_mag2_l	add_mag3_l	tfl_l	pect_l	grac_l	glut_max1_l	glut_max2_l	glut_max3_l	iliacus_l	psoas_l	quad_fem_l	gem_l	peri_l	rect_fem_l	vas_med_l	vas_int_l	vas_lat_l	med_gas_l	lat_gas_l	soleus_l	tib_post_l	flex_dig_l	flex_hal_l	tib_ant_l	per_brev_l	per_long_l	per_tert_l	ext_dig_l	ext_hal_l	ercspn_r	ercspn_l	intobl_r	intobl_l	extobl_r	extobl_l	contactForce_femur_lat_meniscii_l.femur_lat_l.force.X	contactForce_femur_lat_meniscii_l.femur_lat_l.force.Y	contactForce_femur_lat_meniscii_l.femur_lat_l.force.Z	contactForce_femur_lat_meniscii_l.femur_lat_l.torque.X	contactForce_femur_lat_meniscii_l.femur_lat_l.torque.Y	contactForce_femur_lat_meniscii_l.femur_lat_l.torque.Z	contactForce_femur_lat_meniscii_l.meniscus_lat_l.force.X	contactForce_femur_lat_meniscii_l.meniscus_lat_l.force.Y	contactForce_femur_lat_meniscii_l.meniscus_lat_l.force.Z	contactForce_femur_lat_meniscii_l.meniscus_lat_l.torque.X	contactForce_femur_lat_meniscii_l.meniscus_lat_l.torque.Y	contactForce_femur_lat_meniscii_l.meniscus_lat_l.torque.Z	contactForce_femur_med_meniscii_l.femur_med_l.force.X	contactForce_femur_med_meniscii_l.femur_med_l.force.Y	contactForce_femur_med_meniscii_l.femur_med_l.force.Z	contactForce_femur_med_meniscii_l.femur_med_l.torque.X	contactForce_femur_med_meniscii_l.femur_med_l.torque.Y	contactForce_femur_med_meniscii_l.femur_med_l.torque.Z	contactForce_femur_med_meniscii_l.meniscus_med_l.force.X	contactForce_femur_med_meniscii_l.meniscus_med_l.force.Y	contactForce_femur_med_meniscii_l.meniscus_med_l.force.Z	contactForce_femur_med_meniscii_l.meniscus_med_l.torque.X	contactForce_femur_med_meniscii_l.meniscus_med_l.torque.Y	contactForce_femur_med_meniscii_l.meniscus_med_l.torque.Z	contactForce_femur_lat_meniscii_r.femur_lat_r.force.X	contactForce_femur_lat_meniscii_r.femur_lat_r.force.Y	contactForce_femur_lat_meniscii_r.femur_lat_r.force.Z	contactForce_femur_lat_meniscii_r.femur_lat_r.torque.X	contactForce_femur_lat_meniscii_r.femur_lat_r.torque.Y	contactForce_femur_lat_meniscii_r.femur_lat_r.torque.Z	contactForce_femur_lat_meniscii_r.meniscus_lat_r.force.X	contactForce_femur_lat_meniscii_r.meniscus_lat_r.force.Y	contactForce_femur_lat_meniscii_r.meniscus_lat_r.force.Z	contactForce_femur_lat_meniscii_r.meniscus_lat_r.torque.X	contactForce_femur_lat_meniscii_r.meniscus_lat_r.torque.Y	contactForce_femur_lat_meniscii_r.meniscus_lat_r.torque.Z	contactForce_femur_med_meniscii_r.femur_med_r.force.X	contactForce_femur_med_meniscii_r.femur_med_r.force.Y	contactForce_femur_med_meniscii_r.femur_med_r.force.Z	contactForce_femur_med_meniscii_r.femur_med_r.torque.X	contactForce_femur_med_meniscii_r.femur_med_r.torque.Y	contactForce_femur_med_meniscii_r.femur_med_r.torque.Z	contactForce_femur_med_meniscii_r.meniscus_med_r.force.X	contactForce_femur_med_meniscii_r.meniscus_med_r.force.Y	contactForce_femur_med_meniscii_r.meniscus_med_r.force.Z	contactForce_femur_med_meniscii_r.meniscus_med_r.torque.X	contactForce_femur_med_meniscii_r.meniscus_med_r.torque.Y	contactForce_femur_med_meniscii_r.meniscus_med_r.torque.Z	aACL_R	pACL_R	aPCL_R	pPCL_R	aMCL_R	aLCL_R	aPCL_L	pPCL_L	aMCL_L	aLCL_L
      0.39125446	      7.75057566	      5.80527525	      6.21593988	      2.72160185	      3.24674876	      3.27827274	     14.80146750	      6.94176394	     13.24755389	     12.23889424	      1.82254478	      5.75314455	      4.23776218	      2.99027401	      2.51514959	      4.09813587	      4.15794054	      2.29181579	      2.38735882	      3.74603941	      5.69314156	      4.25168509	     22.90065768	     13.25157861	      3.71403126	      2.89524599	      4.25099556	      1.05012690	      0.00000000	      0.18638599	      0.00000000	      2.61548435	      2.44648889	      0.00000000	      0.00000000	      0.00000000	      0.00000000	     30.21949492	      0.74077158	      2.65791115	      0.00000000	     23.33106994	      4.80467682	     10.92481074	      5.76398207	      5.01362716	      5.53683725	      5.56877507	      3.79726098	     12.01911428	      5.18716261	      8.69256727	      9.20974801	      1.83474641	      5.42057229	      3.63347015	      2.06675307	      1.89395331	      3.22880972	      5.41282746	      2.22035617	      1.80393355	      3.16228853	      4.59272416	      2.76746869	     25.83830382	     15.78217660	      1.99035366	      0.83164122	      2.31477506	      9.37427399	      4.81551557	      5.19797027	      5.56712967	      4.39759905	      1.68931621	      5.21405692	      9.55097592	      2.47537234	      3.11624019	     20.74162058	      3.24760748	      5.95661437	     13.67077531	     10.37794602	      1.94811554	     25.59730693	     25.59730693	      9.23191320	      9.23191320	     27.01293024	     27.01293024	      2.39522081	      4.44037531	     -1.56944389	      0.73702984	     -0.04295854	      1.00310010	     -2.39522081	     -4.44037531	      1.56944389	     -0.16870566	      0.07150505	     -0.05498141	     -2.80181001	     15.33391428	     -2.02881703	      0.51551150	     -0.00212974	     -0.71733328	      2.80181001	    -15.33391428	      2.02881703	      0.14202776	     -0.00838764	     -0.27022385	      0.05646568	      0.14509416	     -0.01574728	      0.00255079	      0.00180035	      0.02574370	     -0.05646568	     -0.14509416	      0.01574728	      0.00429677	     -0.00211225	     -0.00406394	      0.00000000	      0.00000000	      0.00000000	      0.00000000	      0.00000000	      0.00000000	      0.00000000	      0.00000000	      0.00000000	      0.00000000	      0.00000000	      0.00000000	      0.00000000	      0.00000000	     -8.90613266	     -9.74541584	      0.00000000	      0.00000000	      0.00000000	      0.00000000	      0.00000000	      1.09638558
      0.39137005	      7.75027001	      5.80506495	      6.21571190	      2.72150744	      3.24664657	      3.27814372	     14.80741338	      6.94095675	     13.25061460	     12.23831877	      1.82030895	      5.75293369	      4.23761651	      2.99016646	      2.51505697	      4.09796886	      4.15235975	      2.29173578	      2.38675484	      3.74590378	      5.69293481	      4.25152787	     22.90027606	     13.25114887	      3.71389962	      2.89518421	      4.25075736	      1.04825240	      0.00000000	      0.18484842	      0.00000000	      2.63803838	      2.45114295	      0.00000000	      0.00000000	      0.00000000	      0.00000000	     30.23408170	      0.73524414	      2.63061974	      4.78679484	     23.29023973	      4.79922852	     10.92266335	      5.76397181	      5.01476140	      5.53706742	      5.56897710	      3.79737118	     12.01991526	      5.18731080	      8.68994984	      9.21009815	      1.83468102	      5.42035347	      3.63350870	      2.06691444	      1.89401410	      3.22883709	      5.41410071	      2.22029665	      1.80392982	      3.16243033	      4.59297591	      2.76777182	     25.83953101	     15.78258112	      1.99129683	      0.83227674	      2.31605432	      9.37237900	      4.81455089	      5.19644949	      5.56427999	      4.39819364	      1.68969890	      5.21373172	      9.54291633	      2.47483222	      3.11956084	     20.74442517	      3.25055956	      5.96136036	     13.67371530	     10.37869825	      1.94651604	     25.59641696	     25.59641696	      9.23156369	      9.23156369	     27.01261628	     27.01261628	      2.40047353	      4.45955701	     -1.57501141	      0.73965576	     -0.04304273	      1.00522814	     -2.40047353	     -4.45955701	      1.57501141	     -0.16939663	      0.07167268	     -0.05503258	     -2.80428248	     15.32552059	     -2.02717220	      0.51494427	     -0.00224935	     -0.71868876	      2.80428248	    -15.32552059	      2.02717220	      0.14184372	     -0.00835881	     -0.27007510	      0.06327150	      0.16205421	     -0.01750046	      0.00281324	      0.00201512	      0.02884090	     -0.06327150	     -0.16205421	      0.01750046	      0.00480117	     -0.00236487	     -0.00455040	      0.00000000	      0.00000000	      0.00000000	      0.00000000	      0.00000000	      0.00000000	      0.00000000	      0.00000000	      0.00000000	      0.00000000	      0.00000000	      0.00000000	      0.00000000	      0.00000000	     -8.93394397	     -9.76229460	      0.00000000	      0.00000000	      0.00000000	      0.00000000	      0.00000000	      1.11449205
      0.39140362	      7.75018134	      5.80500394	      6.21564576	      2.72148005	      3.24661693	      3.27810630	     14.80914389	      6.94072628	     13.25150983	     12.23819782	      1.81965738	      5.75287253	      4.23757426	      2.99013526	      2.51503010	      4.09792042	      4.15074089	      2.29171257	      2.38658233	      3.74586444	      5.69287484	      4.25148226	     22.90016537	     13.25102422	      3.71386143	      2.89516629	      4.25068826	      1.04769934	      0.00000000	      0.18437987	      0.00000000	      2.64306967	      2.45248695	      0.00000000	      0.00000000	      0.00000000	      0.00000000	     30.23825689	      0.73367310	      2.62276717	     16.49725572	     23.27852114	      4.79764609	     10.92203968	      5.76396867	      5.01509045	      5.53713412	      5.56903564	      3.79740282	     12.02014683	      5.18735321	      8.68919160	      9.21019812	      1.83466194	      5.42029021	      3.63352004	      2.06696139	      1.89403182	      3.22884513	      5.41447035	      2.22027944	      1.80392851	      3.16247145	      4.59304895	      2.76785986	     25.83988740	     15.78269865	      1.99157067	      0.83246129	      2.31642580	      9.37183282	      4.81427362	      5.19601131	      5.56345773	      4.39836783	      1.68981114	      5.21364003	      9.54057833	      2.47467158	      3.12052157	     20.74523808	      3.25141598	      5.96273867	     13.67456827	     10.37893238	      1.94605540	     25.59615880	     25.59615880	      9.23146231	      9.23146231	     27.01252520	     27.01252520	      2.40256578	      4.46503772	     -1.57655200	      0.74038433	     -0.04307830	      1.00608587	     -2.40256578	     -4.46503772	      1.57655200	     -0.16959198	      0.07173659	     -0.05506965	     -2.80448887	     15.32325052	     -2.02676919	      0.51480720	     -0.00226856	     -0.71886001	      2.80448887	    -15.32325052	      2.02676919	      0.14179005	     -0.00836140	     -0.27005634	      0.06483990	      0.16799992	     -0.01760844	      0.00269082	      0.00206021	      0.02957942	     -0.06483990	     -0.16799992	      0.01760844	      0.00499737	     -0.00241859	     -0.00468837	      0.00000000	      0.00000000	      0.00000000	      0.00000000	      0.00000000	      0.00000000	      0.00000000	      0.00000000	      0.00000000	      0.00000000	      0.00000000	      0.00000000	      0.00000000	      0.00000000	     -8.94445070	     -9.77257412	      0.00000000	      0.00000000	      0.00000000	      0.00000000	      0.00000000	      1.11973680
      0.39151851	      7.74987812	      5.80479531	      6.21541959	      2.72138639	      3.24651556	      3.27797831	     14.81505663	      6.93993537	     13.25456694	     12.23770725	      1.81742200	      5.75266335	      4.23742975	      2.99002857	      2.51493822	      4.09775474	      4.14519603	      2.29163320	      2.38599144	      3.74572989	      5.69266974	      4.25132629	     22.89978680	     13.25059790	      3.71373083	      2.89510501	      4.25045194	      1.04579692	      0.00000000	      0.18277514	      0.00000000	      2.65833354	      2.45709906	      0.00000000	      0.00000000	      0.00000000	      0.00000000	     30.25256039	      0.72833258	      2.59604969	     34.96465625	     23.23866369	      4.79220321	     10.91990401	      5.76395722	      5.01621577	      5.53736179	      5.56923550	      3.79750981	     12.02093626	      5.18749631	      8.68660193	      9.21053400	      1.83459650	      5.42007467	      3.63355949	      2.06712245	      1.89409271	      3.22887294	      5.41573543	      2.22022089	      1.80392330	      3.16261197	      4.59329862	      2.76816117	     25.84110790	     15.78310137	      1.99250820	      0.83309315	      2.31769754	      9.36997716	      4.81333520	      5.19452377	      5.56066177	      4.39896944	      1.69019917	      5.21333596	      9.53258237	      2.47410870	      3.12379855	     20.74801571	      3.25434520	      5.96745792	     13.67748589	     10.37978728	      1.94449135	     25.59527591	     25.59527591	      9.23111559	      9.23111559	     27.01221374	     27.01221374	      2.40983223	      4.48366049	     -1.58180050	      0.74286504	     -0.04320192	      1.00906608	     -2.40983223	     -4.48366049	      1.58180050	     -0.17025627	      0.07195795	     -0.05520156	     -2.83550233	     15.32073971	     -2.02497358	      0.51404441	     -0.00302637	     -0.73211481	      2.83550233	    -15.32073971	      2.02497358	      0.14169750	     -0.00792515	     -0.26895654	      0.07268730	      0.18746410	     -0.01944072	      0.00291790	      0.00230451	      0.03314760	     -0.07268730	     -0.18746410	      0.01944072	      0.00558116	     -0.00270650	     -0.00524661	      0.00000000	      0.00000000	      0.00000000	      0.00000000	      0.00000000	      0.00000000	      0.00000000	      0.00000000	      0.00000000	      0.00000000	      0.00000000	      0.00000000	      0.00000000	      0.00000000	     -8.99741578	     -9.84495151	      0.00000000	      0.00000000	      0.00000000	      0.00000000	      0.00000000	      1.13730373
